<svg width="256" height="256" viewBox="0 0 256 256" fill="none" xmlns="http://www.w3.org/2000/svg">
<path d="M144.333 10C144.333 10 152.227 38.2667 152.227 61.2C152.227 83.1733 137.827 100.987 115.853 100.987C93.7733 100.987 77.1333 83.1733 77.1333 61.2L77.4533 57.36C55.9067 82.96 43 116.133 43 152.187C43 199.333 81.1867 237.52 128.333 237.52C175.48 237.52 213.667 199.333 213.667 152.187C213.667 94.6933 186.04 43.3867 144.333 10Z" fill="#B45309"/>
<g filter="url(#filter0_d_112_756)">
<path d="M208.12 134.587C191.373 91.0667 131.747 88.72 146.147 25.4667C147.213 20.7733 142.2 17.1467 138.147 19.6C99.4267 42.4267 71.5867 88.1867 94.9467 148.133C96.8667 153.04 91.1067 157.627 86.9467 154.427C67.64 139.813 65.6133 118.8 67.32 103.76C67.96 98.2133 60.7067 95.5467 57.6133 100.133C50.36 111.227 43 129.147 43 156.133C47.0533 215.867 97.5067 234.213 115.64 236.56C141.56 239.867 169.613 235.067 189.773 216.613C211.96 196.027 220.067 163.173 208.12 134.587Z" fill="#F97316"/>
</g>
<defs>
<filter id="filter0_d_112_756" x="39" y="14.8102" width="178.627" height="226.719" filterUnits="userSpaceOnUse" color-interpolation-filters="sRGB">
<feFlood flood-opacity="0" result="BackgroundImageFix"/>
<feColorMatrix in="SourceAlpha" type="matrix" values="0 0 0 0 0 0 0 0 0 0 0 0 0 0 0 0 0 0 127 0" result="hardAlpha"/>
<feOffset/>
<feGaussianBlur stdDeviation="2"/>
<feComposite in2="hardAlpha" operator="out"/>
<feColorMatrix type="matrix" values="0 0 0 0 0 0 0 0 0 0 0 0 0 0 0 0 0 0 0.25 0"/>
<feBlend mode="normal" in2="BackgroundImageFix" result="effect1_dropShadow_112_756"/>
<feBlend mode="normal" in="SourceGraphic" in2="effect1_dropShadow_112_756" result="shape"/>
</filter>
</defs>
</svg>
